<?xml version="1.0" encoding="UTF-8"?>
<svg data-name="Logo Torito"
     xmlns="http://www.w3.org/2000/svg"
     viewBox="0 0 175.29 81.83">
    <defs>
        <style>
        .cls-1 {
            fill: #fff;
        }

        .cls-2 {
            fill: red;
        }
        </style>
    </defs>
    <g>
        <rect y="65.75"
              width="175.25"
              height="16.08" />
        <rect class="cls-2"
              width="175.29"
              height="65.75" />
        <path class="cls-1"
              d="m27.6,16.53v29.14c0,.65.11,1.11.32,1.39.12.17.22.27.32.32.1.04.43.14.99.31.69.18,1.04.63,1.04,1.36,0,.43-.18.78-.56,1.04-.27.2-.74.3-1.38.3h-11.05c-.63,0-1.1-.11-1.43-.34-.33-.22-.49-.55-.49-1,0-.73.35-1.19,1.03-1.36.57-.17.89-.27.99-.31.1-.05.2-.15.3-.32.21-.28.32-.73.32-1.39v-29.14h9.58Zm7.46,0v10.14c0,.48-.12.88-.35,1.17-.24.3-.55.44-.92.44s-.66-.13-.9-.4c-.24-.28-.39-.65-.46-1.14l-.21-1.5c-.21-1.54-.63-2.87-1.25-3.99-.39-.69-.91-1.27-1.58-1.72v-3h5.68Zm-24.46,0h5.68v3c-.68.44-1.2,1.02-1.58,1.72-.62,1.13-1.04,2.45-1.25,3.99l-.21,1.5c-.07.48-.23.86-.46,1.14-.24.27-.54.4-.9.4s-.68-.15-.92-.44c-.24-.3-.35-.69-.35-1.17v-10.14Zm38.47,2.01c-.73.3-1.25.7-1.55,1.22-.3.51-.45,1.26-.45,2.25v22.18c0,1.45.17,2.48.52,3.07.27.49.77.85,1.49,1.07v2.72c-3.2-.3-5.87-1.68-8.03-4.14-2.81-3.21-4.2-7.68-4.2-13.42,0-2.88.37-5.48,1.11-7.79.74-2.33,1.83-4.3,3.29-5.92,1.11-1.24,2.3-2.18,3.58-2.82,1.28-.65,2.69-1.01,4.25-1.1v2.68Zm1.77,0v-2.68c1.55.09,2.97.45,4.26,1.1,1.29.64,2.49,1.58,3.59,2.82,2.94,3.29,4.4,7.85,4.4,13.72s-1.41,10.21-4.21,13.42c-2.16,2.48-4.84,3.86-8.05,4.14v-2.72c.38-.11.67-.23.88-.39.21-.15.4-.38.57-.68.39-.67.58-1.7.58-3.07v-22.18c0-.88-.13-1.57-.39-2.08-.17-.35-.37-.62-.62-.82-.24-.2-.57-.39-1.02-.57m26.69-2.01v29.14c0,.65.11,1.11.33,1.39.12.17.22.27.32.32.1.04.43.14.99.31.69.18,1.04.63,1.04,1.36,0,.43-.18.78-.56,1.04-.27.2-.73.3-1.36.3h-10.91c-.52,0-.92-.11-1.2-.34-.28-.22-.42-.55-.42-.95,0-.68.29-1.13.86-1.35.48-.17.75-.29.83-.33.08-.04.16-.13.25-.29.17-.26.26-.68.26-1.26v-24.83c0-.57-.09-1-.26-1.26-.09-.15-.17-.24-.25-.28-.08-.05-.35-.15-.83-.33-.57-.22-.86-.67-.86-1.35,0-.41.14-.73.42-.95.28-.23.68-.34,1.2-.34h10.16Zm6.62,17.26c1.33.23,2.34.49,3.06.77.71.28,1.35.66,1.93,1.15.6.51,1.07,1.12,1.39,1.83.32.71.49,1.47.49,2.26v5.13c0,.54.15.8.45.8.12,0,.21-.03.29-.11.08-.07.19-.22.33-.43.36-.57.73-.85,1.11-.85.24,0,.49.16.73.45s.37.59.37.89c0,.52-.21,1.15-.64,1.87-.43.73-.96,1.39-1.59,1.97-.59.55-1.23.94-1.92,1.19-.69.24-1.5.35-2.44.35-1.89,0-3.38-.63-4.44-1.87-1.07-1.26-1.6-2.99-1.6-5.23v-4.16c0-.92,0-1.46-.02-1.61-.07-.67-.27-1.23-.6-1.72-.42-.57-1.02-.92-1.79-1.02v-2.65c.77-.13,1.33-.36,1.66-.69.29-.3.48-.63.59-1.02.11-.38.16-.95.16-1.69v-6.57c0-1.04-.18-1.83-.53-2.33-.35-.52-.99-.92-1.91-1.22v-2.75h.56c1.6,0,2.95.07,4.08.2,1.66.18,3.15.81,4.46,1.89,1.88,1.54,2.83,3.73,2.83,6.57,0,2.34-.63,4.24-1.9,5.73-.53.63-1.15,1.14-1.86,1.54-.71.4-1.8.84-3.25,1.34m24.29,16.59h-10.18c-.51,0-.92-.11-1.2-.34-.28-.22-.42-.55-.42-.95,0-.68.29-1.13.86-1.35.48-.17.75-.29.83-.33s.16-.13.25-.29c.17-.26.26-.68.26-1.26v-24.83c0-.57-.09-1-.26-1.26-.09-.15-.17-.24-.25-.28-.08-.05-.35-.15-.83-.33-.57-.22-.86-.67-.86-1.35,0-.41.14-.73.42-.95.28-.23.69-.34,1.2-.34h10.75c.51,0,.92.11,1.2.34.28.22.42.54.42.95,0,.67-.29,1.13-.86,1.35-.48.18-.75.28-.83.33-.08.04-.16.13-.25.28-.17.26-.26.69-.26,1.26v24.83c0,.58.09,1,.26,1.26.09.16.17.25.25.29.08.04.36.16.83.33.57.22.86.67.86,1.35,0,.4-.14.73-.42.95-.28.23-.69.34-1.2.34h-.56Zm21.83-33.85v29.14c0,.65.11,1.11.32,1.39.12.17.22.27.32.32.1.04.43.14.99.31.69.18,1.04.63,1.04,1.36,0,.43-.19.78-.56,1.04-.27.2-.74.3-1.38.3h-11.05c-.63,0-1.1-.11-1.43-.34-.32-.22-.48-.55-.48-1,0-.73.35-1.19,1.03-1.36.57-.17.89-.27.99-.31.1-.05.2-.15.3-.32.21-.28.32-.73.32-1.39v-29.14h9.58Zm7.46,0v10.14c0,.48-.12.88-.35,1.17-.24.3-.55.44-.92.44s-.66-.13-.9-.4c-.24-.28-.39-.65-.46-1.14l-.21-1.5c-.21-1.54-.63-2.87-1.25-3.99-.39-.69-.91-1.27-1.58-1.72v-3h5.68Zm-24.46,0h5.68v3c-.68.44-1.2,1.02-1.58,1.72-.62,1.13-1.04,2.45-1.25,3.99l-.21,1.5c-.07.48-.23.86-.46,1.14-.24.27-.54.4-.9.4s-.68-.15-.92-.44c-.24-.3-.35-.69-.35-1.17v-10.14Zm38.47,2.01c-.73.3-1.25.7-1.55,1.22-.3.51-.45,1.26-.45,2.25v22.18c0,1.45.17,2.48.52,3.07.27.49.77.85,1.49,1.07v2.72c-3.2-.3-5.87-1.68-8.03-4.14-2.81-3.21-4.21-7.68-4.21-13.42,0-2.88.37-5.48,1.11-7.79.74-2.33,1.83-4.3,3.29-5.92,1.1-1.24,2.3-2.18,3.58-2.82,1.28-.65,2.69-1.01,4.25-1.1v2.68Zm1.77,0v-2.68c1.55.09,2.98.45,4.26,1.1,1.29.64,2.49,1.58,3.59,2.82,2.94,3.29,4.4,7.85,4.4,13.72s-1.41,10.21-4.21,13.42c-2.16,2.48-4.84,3.86-8.05,4.14v-2.72c.38-.11.67-.23.88-.39.21-.15.4-.38.57-.68.39-.67.58-1.7.58-3.07v-22.18c0-.88-.13-1.57-.39-2.08-.17-.35-.38-.62-.62-.82-.24-.2-.57-.39-1.02-.57" />
        <g>
            <path class="cls-1"
                  d="m3.51,68.35h2.04v.96c-.24.15-.43.33-.57.55-.22.36-.37.79-.45,1.28l-.08.49c-.03.16-.08.27-.17.36-.09.08-.19.13-.32.13s-.24-.05-.33-.14c-.09-.1-.13-.22-.13-.38v-3.25Zm6.1,0v9.33c0,.21.04.36.11.45.04.05.08.08.12.1.04.01.15.05.36.1.25.06.37.2.37.43,0,.14-.07.25-.2.34-.1.06-.26.1-.49.1h-3.71s-.26,0-.26,0c-.23,0-.4-.03-.52-.1-.11-.07-.17-.18-.17-.32,0-.23.12-.38.37-.43.2-.06.32-.09.36-.1.04-.01.07-.05.11-.1.08-.09.12-.24.12-.45v-9.33h3.44Zm2.68,0v3.25c0,.16-.04.28-.13.38-.09.1-.2.14-.33.14s-.24-.05-.32-.13c-.09-.09-.14-.21-.17-.36l-.08-.49c-.08-.49-.23-.92-.45-1.28-.14-.22-.33-.4-.57-.55v-.96h2.04Z" />
            <path class="cls-1"
                  d="m15.49,76.03v-6.23c0-.19-.03-.32-.09-.41-.03-.05-.06-.08-.09-.09s-.13-.05-.3-.11c-.21-.06-.31-.21-.31-.42,0-.14.05-.24.15-.31.1-.07.24-.11.43-.11h3.86l.28.03c.09.03.16.07.22.14s.09.16.09.25c0,.21-.1.36-.31.42-.17.06-.27.1-.3.11-.03.01-.06.05-.09.09-.06.08-.09.22-.09.41v6.66c0,.45.01.76.03.94.02.17.07.34.14.48.07.14.14.23.22.28s.24.13.47.2v1.04h-.17c-.67,0-1.23-.06-1.67-.18-.52-.14-.98-.36-1.37-.64-.39-.28-.67-.59-.84-.94-.18-.37-.26-.91-.26-1.62m5.03,3.38v-1.04c.52-.07.95-.28,1.29-.65.39-.41.59-1.02.59-1.8v-5.18c0-.73-.27-1.24-.81-1.52-.16-.08-.27-.16-.31-.22-.05-.06-.07-.15-.07-.27,0-.14.05-.23.15-.29.1-.06.26-.09.48-.09h1.9c.16,0,.27,0,.32.01.05,0,.11.03.16.06.13.08.2.19.2.33,0,.12-.04.21-.12.29-.02.03-.14.1-.33.21-.23.13-.41.32-.54.59-.13.26-.19.56-.19.89v5.19c0,.89-.19,1.62-.57,2.19-.28.42-.68.76-1.2,1.02-.26.13-.57.22-.93.28" />
            <path class="cls-1"
                  d="m36.78,68.36l1.53,4.46.67-2.41v2.63l-1.79,6.16h-.41l-3-9.14c-.1-.3-.21-.51-.33-.61-.07-.07-.18-.12-.35-.16-.34-.07-.5-.24-.5-.49,0-.14.05-.25.14-.32.1-.08.23-.12.42-.12h3.62Zm-3.01,3.65l.82,2.4v2.39c0,.25,0,.42.03.52.02.11.06.23.12.35.11.23.26.41.45.52l.29.19c.2.12.29.26.29.41,0,.27-.19.4-.58.4h-1.94c-.39,0-.58-.13-.58-.39,0-.08.02-.15.05-.19.03-.05.1-.1.2-.16.57-.32.86-.87.86-1.66v-4.79Zm5.86-3.65h3.65c.39,0,.58.14.58.41,0,.21-.1.36-.31.43-.17.06-.27.09-.3.1-.03.02-.06.05-.09.1-.06.08-.09.22-.09.4v7.95c0,.18.03.32.09.4.03.05.06.08.09.1.03.01.13.05.3.1.21.07.31.21.31.43,0,.28-.19.41-.58.41h-3.91c-.23,0-.4-.03-.51-.1-.12-.07-.17-.18-.17-.32,0-.23.12-.38.37-.44.2-.05.32-.08.36-.1.04-.01.07-.05.11-.09.08-.1.12-.25.12-.45v-9.33Z" />
            <path class="cls-1"
                  d="m50.94,68.36v10.84s-3.45,0-3.45,0h-.2c-.19,0-.33-.03-.43-.1-.1-.07-.15-.17-.15-.3,0-.22.1-.36.31-.43.17-.06.27-.09.3-.1.03-.01.06-.05.09-.09.06-.09.09-.22.09-.41v-7.95c0-.18-.03-.32-.09-.4-.03-.05-.06-.08-.09-.09-.03-.01-.13-.05-.3-.11-.21-.07-.31-.21-.31-.43,0-.14.05-.24.15-.31.1-.07.24-.1.43-.1h3.65Zm.65,5.78v-.92c.3-.15.52-.31.67-.49.14-.17.25-.41.32-.7.04-.21.1-.34.16-.42.07-.08.16-.12.29-.12.16,0,.28.07.34.2.04.07.05.23.05.47v3.03c0,.25-.03.42-.08.51-.05.1-.15.14-.3.14-.12,0-.21-.03-.28-.11-.07-.07-.12-.19-.16-.38-.09-.36-.21-.64-.38-.84-.16-.19-.37-.32-.63-.39m.04-5.78h3.12v2.81c0,.16-.03.28-.09.36-.06.08-.16.11-.29.11-.11,0-.2-.02-.25-.07-.05-.05-.1-.14-.15-.29-.2-.61-.49-1.09-.86-1.41-.38-.32-.87-.52-1.48-.58v-.93Zm0,10.84v-.86c.34-.05.61-.13.83-.22.22-.1.44-.25.66-.44.22-.19.4-.4.53-.61.13-.21.26-.49.38-.83.06-.17.12-.28.18-.35.06-.06.15-.09.26-.09.14,0,.24.05.3.13.06.09.09.25.09.46v2.81h-3.22Z" />
            <path class="cls-1"
                  d="m59.63,78.49v.87c-.65-.1-1.16-.28-1.55-.54-.35-.24-.62-.54-.82-.88-.19-.35-.29-.72-.29-1.12,0-.48.16-.89.48-1.24.32-.35.71-.52,1.16-.52s.79.16,1.09.47c.3.31.45.68.45,1.11,0,.34-.11.65-.33.94-.15.2-.37.36-.65.49-.09.05-.14.08-.15.12,0,.03.02.06.06.1.05.04.11.07.18.1.08.03.19.06.35.1m1.2-1.11v-7.51c0-.32-.09-.51-.28-.56l-.3-.08c-.25-.06-.37-.21-.37-.43,0-.14.06-.25.17-.32.12-.07.29-.11.51-.11h.26s3.45,0,3.45,0h.21s.28.03.28.03c.2.06.3.19.3.39,0,.21-.1.36-.31.43l-.25.08c-.16.05-.23.23-.23.52v6.64c0,.96-.31,1.71-.93,2.21-.29.24-.67.43-1.12.56-.45.14-.93.2-1.44.2-.09,0-.24,0-.45-.01v-.92s.06-.05.08-.05c.1-.08.18-.15.22-.19.04-.05.08-.12.11-.19.06-.17.09-.4.09-.67" />
            <path class="cls-1"
                  d="m71.77,69.01c-.26.1-.45.23-.56.39-.11.16-.16.41-.16.72v7.1c0,.47.06.8.19.98.1.16.27.27.53.34v.87c-1.15-.1-2.11-.54-2.88-1.33-1.01-1.03-1.51-2.46-1.51-4.3,0-.92.13-1.75.4-2.5.27-.74.66-1.38,1.18-1.89.4-.39.83-.7,1.29-.91.46-.21.97-.32,1.53-.35v.86Zm.64,0v-.86c.56.03,1.07.14,1.53.35.46.21.89.51,1.29.91,1.05,1.05,1.58,2.52,1.58,4.4s-.5,3.27-1.51,4.29c-.78.8-1.74,1.23-2.89,1.33v-.87c.13-.03.24-.07.31-.12.07-.05.14-.12.21-.22.14-.21.21-.54.21-.98v-7.1c0-.28-.05-.5-.14-.67-.06-.12-.14-.2-.22-.27-.08-.06-.21-.12-.37-.18" />
            <path class="cls-1"
                  d="m83.57,68.37v9.33c0,.21.04.36.11.45.04.05.08.08.12.1.04.01.16.05.36.1.25.06.37.21.37.44,0,.14-.07.25-.2.34-.1.06-.26.09-.49.09h-3.92c-.19,0-.33-.03-.43-.1-.1-.07-.15-.17-.15-.31,0-.21.1-.36.31-.43.17-.06.27-.09.3-.11.03-.01.06-.04.09-.09.06-.08.09-.22.09-.4v-7.95c0-.19-.03-.32-.09-.41-.03-.05-.06-.08-.09-.09-.03-.01-.13-.05-.3-.1-.21-.07-.31-.21-.31-.43,0-.13.05-.23.15-.3.1-.07.24-.1.43-.1h3.65Zm2.38,5.53c.47.07.84.16,1.09.25.26.09.49.21.69.36.22.17.38.36.5.59.12.23.17.47.17.72v1.64c0,.17.05.26.16.26.04,0,.08-.01.11-.04.03-.03.07-.07.12-.14.13-.18.26-.27.4-.27.09,0,.17.05.26.14.09.1.13.19.13.28,0,.16-.08.36-.23.6-.15.23-.34.45-.57.63-.21.17-.44.3-.69.38-.25.08-.54.12-.88.12-.68,0-1.21-.2-1.6-.6-.38-.4-.57-.96-.57-1.68v-1.33c0-.3,0-.47,0-.52-.03-.21-.1-.39-.22-.55-.15-.18-.36-.29-.64-.32v-.85c.28-.04.48-.12.6-.22.1-.1.17-.21.21-.32.04-.12.06-.3.06-.54v-2.1c0-.34-.06-.58-.19-.75-.13-.16-.36-.29-.69-.39v-.88h.2c.57,0,1.06.02,1.46.06.6.05,1.13.26,1.6.6.68.49,1.02,1.2,1.02,2.1,0,.75-.23,1.36-.68,1.84-.19.2-.41.37-.67.49-.26.13-.64.27-1.16.43" />
            <path class="cls-1"
                  d="m98.71,71.16l.82,1.4v4.26c0,.37.06.67.18.91.12.24.31.43.58.59l.23.14c.13.08.2.19.2.36,0,.12-.05.22-.15.3-.08.06-.25.1-.51.1h-1.79c-.47,0-.7-.14-.7-.41,0-.1.02-.17.07-.23.05-.06.16-.14.32-.23.49-.28.74-.8.74-1.53v-5.66Zm3.25-2.79l4.12,7.34v3.5h-2.11l-5.26-9.29c-.11-.21-.21-.34-.28-.43-.07-.08-.16-.14-.28-.17l-.29-.11c-.08-.03-.14-.07-.19-.14-.05-.07-.07-.14-.07-.23,0-.08.02-.17.07-.25.05-.08.11-.14.19-.16.09-.04.32-.06.71-.06h3.39Zm4.12,6.07l-.82-1.42v-2.21c0-.44-.06-.78-.19-1.02-.13-.24-.35-.44-.67-.61-.11-.06-.18-.11-.22-.17-.04-.06-.06-.14-.06-.23,0-.14.05-.25.14-.31.09-.07.24-.1.44-.1h1.93c.26,0,.44.05.52.13.09.08.13.19.13.3,0,.11-.02.19-.07.25-.05.06-.17.13-.35.23-.27.14-.48.36-.62.66-.1.22-.15.51-.15.89v3.62Z" />
            <path class="cls-1"
                  d="m114.03,68.37v10.84h-3.65c-.18,0-.33-.04-.43-.11-.1-.07-.15-.17-.15-.3,0-.22.1-.36.31-.43.17-.06.27-.1.3-.11.03-.01.06-.05.09-.09.06-.08.09-.22.09-.41v-7.95c0-.19-.03-.32-.09-.41-.03-.05-.06-.08-.09-.09-.03-.01-.13-.05-.3-.1-.21-.07-.31-.21-.31-.43,0-.13.05-.23.15-.3.1-.07.25-.11.43-.11h3.65Zm.65,5.79v-.92c.3-.15.52-.31.67-.49.14-.17.25-.41.32-.7.04-.2.1-.34.16-.41.07-.08.16-.12.29-.12.16,0,.28.06.34.2.04.06.05.22.05.47v3.03c0,.25-.03.42-.08.52-.05.1-.16.14-.3.14-.12,0-.21-.04-.28-.11-.07-.08-.12-.2-.16-.38-.09-.37-.21-.65-.38-.84-.16-.19-.37-.33-.63-.39m.04-5.79h3.12v2.81c0,.17-.03.28-.09.36-.06.07-.16.11-.29.11-.11,0-.2-.03-.25-.07-.05-.05-.1-.15-.15-.3-.2-.61-.48-1.08-.86-1.4-.38-.32-.87-.52-1.47-.58v-.93Zm0,10.84v-.86c.34-.05.61-.12.83-.22s.44-.24.66-.43c.22-.2.4-.4.53-.61.13-.21.26-.49.38-.83.06-.17.12-.28.18-.34.06-.06.15-.09.25-.09.15,0,.25.04.3.13.06.08.09.24.09.46v2.8h-3.22Z" />
            <path class="cls-1"
                  d="m124.73,68.15v.89c-.45.11-.68.48-.68,1.11v7.39c0,.29.04.51.11.66.07.13.21.24.43.33v.89c-.16,0-.32-.01-.45-.04-.14-.03-.32-.08-.54-.16-.54-.19-1.03-.49-1.47-.87-.44-.39-.8-.86-1.08-1.41-.44-.85-.66-1.86-.66-3.03s.2-2.13.59-3c.39-.87.96-1.56,1.69-2.06.42-.29.88-.5,1.36-.63.2-.05.44-.08.71-.08m4.13,9.73c-.21.21-.48.43-.82.65-.34.22-.67.39-.97.52-.28.11-.59.2-.93.27-.34.06-.64.1-.89.1v-.89c.15-.04.26-.08.34-.14.07-.05.14-.13.19-.23.09-.16.13-.37.13-.63v-2.32c0-.21-.04-.36-.12-.45-.04-.05-.07-.08-.11-.1-.04-.01-.16-.05-.36-.1-.25-.06-.37-.21-.37-.44,0-.14.06-.25.17-.32.12-.07.29-.11.52-.11h3.09c.23,0,.4.04.49.1.1.06.14.18.14.34,0,.1-.02.19-.06.25-.04.06-.11.14-.21.21-.1.08-.17.15-.19.21-.03.06-.04.18-.04.35v2.71Zm-3.5-8.87v-.85c.84.08,1.53.24,2.08.47.16.08.28.12.37.12.08,0,.15-.02.19-.06.04-.04.13-.15.27-.34.09-.13.21-.19.35-.19s.25.04.31.12c.06.08.09.21.09.41v3.09c0,.4-.15.6-.44.6-.14,0-.25-.04-.32-.12-.07-.08-.13-.24-.2-.47-.08-.3-.22-.64-.42-1.03-.2-.39-.39-.7-.58-.94-.21-.26-.45-.46-.71-.58-.26-.12-.59-.19-.98-.22" />
            <path class="cls-1"
                  d="m136.2,69.01c-.26.1-.45.23-.56.39-.11.16-.16.4-.16.72v7.1c0,.47.06.8.18.99.1.15.28.27.54.34v.87c-1.15-.1-2.11-.54-2.88-1.33-1.01-1.02-1.51-2.46-1.51-4.29,0-.92.13-1.75.4-2.5.27-.74.66-1.38,1.18-1.89.4-.4.83-.7,1.29-.91.46-.21.97-.32,1.53-.35v.85Zm.63,0v-.85c.56.03,1.07.14,1.53.35.46.21.89.5,1.29.91,1.05,1.05,1.58,2.52,1.58,4.39,0,1.84-.5,3.27-1.51,4.3-.77.8-1.74,1.23-2.89,1.33v-.87c.13-.03.24-.08.31-.12.08-.05.14-.12.21-.22.14-.22.21-.55.21-.98v-7.11c0-.28-.05-.5-.14-.67-.06-.11-.13-.2-.22-.26-.09-.06-.21-.13-.37-.19" />
            <path class="cls-1"
                  d="m148.03,68.16v.96c-.3.05-.53.18-.68.41-.15.23-.22.56-.22.98v6.56s0,.34,0,.34c0,.12.02.25.07.39.05.13.11.25.19.34.08.1.17.18.26.23.09.05.22.08.38.09v.97c-1,0-1.87-.27-2.61-.8-.65-.47-1.14-1.11-1.47-1.9-.33-.8-.49-1.75-.49-2.83,0-.8.11-1.55.32-2.24.21-.69.53-1.29.93-1.8.41-.52.91-.92,1.48-1.24.58-.31,1.13-.47,1.66-.47h.18Zm.61.98v-.96c.25.05.46.09.62.14.16.05.44.15.86.3.26.1.44.14.53.14.15,0,.26-.07.34-.21l.1-.19c.06-.13.18-.19.35-.19.14,0,.25.05.32.13s.11.21.11.37v3.3c0,.21-.05.37-.14.47-.09.09-.2.14-.32.14-.12,0-.22-.05-.3-.12-.07-.08-.14-.22-.18-.4-.11-.42-.22-.75-.32-.99-.22-.5-.47-.91-.76-1.22-.19-.21-.38-.38-.57-.49-.19-.12-.4-.19-.64-.22m.02,10.3v-.97c.4-.03.83-.19,1.27-.47.24-.16.45-.36.64-.61.19-.26.32-.54.42-.85.05-.17.11-.29.18-.36s.16-.11.27-.11c.12,0,.23.05.31.14.08.1.12.22.12.36,0,.24-.09.52-.27.87-.18.34-.41.65-.69.93-.34.35-.69.61-1.05.78-.36.17-.76.27-1.21.28" />
            <path class="cls-1"
                  d="m158.86,79.22h-3.66c-.19,0-.33-.04-.43-.11-.1-.07-.15-.17-.15-.3,0-.22.1-.36.31-.43.17-.06.27-.1.3-.11.03-.01.06-.05.09-.09.06-.08.09-.22.09-.41v-7.95c0-.19-.03-.32-.09-.41-.03-.05-.06-.08-.09-.09-.03-.01-.13-.05-.3-.1-.21-.07-.31-.21-.31-.43,0-.13.05-.23.15-.3.1-.07.24-.11.43-.11h3.86c.18,0,.33.04.43.11.1.07.15.17.15.3,0,.22-.1.36-.31.43-.17.06-.27.09-.3.1-.03.01-.06.05-.09.09-.06.08-.09.22-.09.41v7.95c0,.18.03.32.09.4.03.05.06.08.09.09s.13.05.3.11c.21.07.31.21.31.43,0,.14-.05.23-.15.31-.1.07-.25.1-.43.1h-.2Z" />
            <path class="cls-1"
                  d="m166.7,69.02c-.26.1-.45.23-.56.39-.11.17-.16.41-.16.72v7.1c0,.47.06.8.18.99.1.16.28.27.54.34v.87c-1.15-.09-2.11-.54-2.88-1.33-1.01-1.03-1.51-2.46-1.51-4.29,0-.92.13-1.76.4-2.5.26-.74.66-1.37,1.18-1.89.4-.39.83-.7,1.29-.91.46-.2.97-.32,1.52-.35v.86Zm.64,0v-.86c.56.03,1.07.15,1.53.36.46.2.89.5,1.29.91,1.05,1.05,1.58,2.52,1.58,4.39s-.5,3.27-1.51,4.29c-.77.8-1.74,1.24-2.89,1.33v-.87c.14-.03.24-.07.31-.12.08-.05.14-.12.21-.21.14-.22.21-.55.21-.99v-7.1c0-.28-.05-.5-.14-.67-.06-.11-.13-.2-.22-.27-.09-.06-.21-.12-.37-.18" />
        </g>
    </g>
</svg>